<?xml version="1.0" standalone="no"?>
<!DOCTYPE svg PUBLIC "-//W3C//DTD SVG 20010904//EN"
 "http://www.w3.org/TR/2001/REC-SVG-20010904/DTD/svg10.dtd">
<svg version="1.0" xmlns="http://www.w3.org/2000/svg"
 width="681.000000pt" height="681.000000pt" viewBox="0 0 681.000000 681.000000"
 preserveAspectRatio="xMidYMid meet">
<metadata>
Created by potrace 1.14, written by Peter Selinger 2001-2017
</metadata>
<g transform="translate(0.000000,681.000000) scale(0.100000,-0.100000)"
fill="#000000" stroke="none">
<path d="M935 6780 c-356 -75 -649 -305 -811 -635 -68 -139 -101 -264 -114
-430 -8 -88 -10 -865 -8 -2405 l4 -2275 22 -99 c102 -444 417 -772 861 -895
l96 -26 2365 -3 c1682 -2 2388 0 2445 8 435 60 812 376 948 795 60 183 57 44
57 2589 0 1998 -2 2344 -15 2421 -67 418 -367 774 -769 914 -184 65 -25 61
-2625 60 -2281 0 -2369 -1 -2456 -19z m2686 -2381 c163 -12 289 -31 451 -65
183 -39 217 -57 218 -119 0 -16 -63 -419 -140 -895 -133 -814 -142 -866 -166
-890 l-24 -25 -535 -3 c-578 -3 -592 -2 -615 50 -19 43 -361 1753 -355 1776
10 42 40 59 156 87 343 82 681 110 1010 84z m1142 -514 c45 -23 191 -160 300
-280 121 -134 244 -295 332 -435 81 -129 212 -388 254 -505 30 -83 30 -88 16
-119 -9 -18 -27 -38 -41 -45 -38 -17 -1200 -15 -1234 2 -14 7 -31 26 -39 42
-13 27 -4 72 138 659 84 347 159 641 167 654 14 21 45 40 69 41 6 1 23 -6 38
-14z m-2643 -5 c11 -6 25 -20 31 -31 13 -26 309 -1245 309 -1276 0 -12 -11
-35 -24 -50 l-24 -28 -615 0 c-589 0 -616 1 -636 19 -38 34 -36 73 7 172 180
415 428 772 764 1102 89 86 110 102 137 102 18 0 41 -5 51 -10z"/>
</g>
</svg>
