<svg id="レイヤー_1" data-name="レイヤー 1" xmlns="http://www.w3.org/2000/svg" viewBox="0 0 32 32"><defs><style>.cls-1{fill:#fff;}.cls-2{fill:#794d34;}</style></defs><rect class="cls-1" width="32" height="32" rx="16"/><path class="cls-2" d="M3,20a.53.53,0,0,1-.49-.73,20.49,20.49,0,0,1,5.32-7.6.53.53,0,0,1,.87.27l1.79,7.4A.54.54,0,0,1,10,20Z"/><path class="cls-2" d="M29.47,20a.53.53,0,0,0,.5-.72,18.69,18.69,0,0,0-5.36-7.65.53.53,0,0,0-.86.28L22,19.36a.53.53,0,0,0,.52.66Z"/><path class="cls-2" d="M10.51,9.74l2.1,10.39a.53.53,0,0,0,.52.42h6.28a.53.53,0,0,0,.52-.44L21.62,9.68a.53.53,0,0,0-.39-.6,19.75,19.75,0,0,0-10.35,0A.53.53,0,0,0,10.51,9.74Z"/></svg>